<svg width="128" height="128" viewBox="0 0 128 128" fill="none" xmlns="http://www.w3.org/2000/svg">
<rect width="128" height="128" fill="#062333"/>
<path d="M25 54.4202V61.0054L43.7718 70.2089L25 79.4123V85.9975L57.2842 70.2089L25 54.4202ZM25 92.5034V99.0886L64 80.047L103 99.0886V92.5034L64 73.4618L25 92.5034ZM64 47.0416L25 28V34.5852L64 53.6268L103 34.5852V28L64 47.0416ZM103 72.7477V66.1625L84.2282 56.9591L103 47.7557V41.1704L70.7158 56.9591L103 72.7477ZM25 47.7557L103 85.9182V79.333L25 41.1704V47.7557Z" fill="#B93BE4"/>
</svg>
