<svg width="999" height="110" viewBox="0 0 999 110" fill="none" xmlns="http://www.w3.org/2000/svg">
  <g clip-path="url(#clip0_1_12)">
    <rect width="999" height="110" fill="#062333" />
    <rect x="609" width="32.6776" height="712.514" fill="#33295E" />
    <rect x="641.678" width="32.6776" height="712.514" fill="#602F8B" />
    <rect x="674.355" width="32.6776" height="712.514" fill="#8C35B8" />
    <rect x="707.033" width="291.967" height="712.514" fill="#B93BE4" />
    <path
      d="M153.365 33.8938V35.3628L157.48 37.4159L153.365 39.469V40.9381L160.441 37.4159L153.365 33.8938ZM153.365 42.3894V43.8584L161.913 39.6106L170.462 43.8584V42.3894L161.913 38.1416L153.365 42.3894ZM161.913 32.2478L153.365 28V29.469L161.913 33.7168L170.462 29.469V28L161.913 32.2478ZM170.462 37.9823V36.5133L166.347 34.4602L170.462 32.4071V30.9381L163.385 34.4602L170.462 37.9823ZM153.365 32.4071L170.462 40.9204V39.4513L153.365 30.9381V32.4071Z"
      fill="#B93BE4" />
    <path
      d="M74.3734 61.292V53.8406H84.3583V43.876H74.3734V33.9114H64.3885V61.292C64.3885 70.4955 71.8905 77.9822 81.1128 77.9822H84.3583V68.0176H81.1128C77.3884 68.0176 74.3734 65.0088 74.3734 61.292ZM42.6452 57.4159L47.682 66.584C48.0367 67.2389 47.5756 68.0176 46.8307 68.0176H30V77.9822H49.6328C56.6028 77.9822 61.0188 70.5309 57.6669 64.4424L52.6301 55.2743C52.2754 54.6194 52.7365 53.8229 53.4814 53.8229H62.2071V43.876H50.6792C43.727 43.876 39.2932 51.3274 42.6452 57.4159ZM150.989 53.8406H153.384V43.876H151.255C145.367 43.876 139.869 46.584 136.287 51.0973C132.704 46.584 127.207 43.876 121.318 43.876H119.19V53.8406H121.584C125.965 53.8406 129.636 56.8672 130.629 60.938C129.636 65.0088 125.965 68.0353 121.584 68.0353H119.19V60.6194C119.19 51.0442 111.387 43.2389 101.774 43.2389C92.1795 43.2389 84.3583 51.0442 84.3583 60.6194C84.3583 70.1946 92.1795 77.9999 101.774 77.9999H107.042V68.0353H101.774C97.6774 68.0353 94.3432 64.7079 94.3432 60.6194C94.3432 56.5309 97.6774 53.2035 101.774 53.2035C105.871 53.2035 109.205 56.5309 109.205 60.6194V77.9999H121.318C127.207 77.9999 132.704 75.292 136.287 70.7787C139.869 75.292 145.367 77.9999 151.255 77.9999H153.384V68.0353H150.989C146.609 68.0353 142.938 65.0088 141.944 60.938C142.92 56.8495 146.591 53.8406 150.989 53.8406Z"
      fill="white" />
  </g>
  <defs>
    <clipPath id="clip0_1_12">
      <rect width="999" height="110" fill="white" />
    </clipPath>
  </defs>
</svg>
