<svg xmlns="http://www.w3.org/2000/svg" width="180" height="88" viewBox="0 0 180 88" fill="none">
  <path class="stax-logo-x"
    d="M158.09 7.5528V9.43533L163.363 12.0663L158.09 14.6973V16.5799L167.158 12.0663L158.09 7.5528ZM158.09 18.4397V20.3222L169.044 14.8788L179.999 20.3222V18.4397L169.044 12.9963L158.09 18.4397ZM169.044 5.44346L158.09 0V1.88253L169.044 7.32599L179.999 1.88253V0L169.044 5.44346ZM179.999 12.7921V10.9096L174.726 8.27859L179.999 5.64759V3.76506L170.931 8.27859L179.999 12.7921ZM158.09 5.64759L179.999 16.5572V14.6747L158.09 3.76506V5.64759Z"
    fill="#B93BE4"></path>
  <path
    d="M56.8637 42.6631V33.1144H69.6591V20.3449H56.8637V7.57547H44.0682V42.6631C44.0682 54.4573 53.6819 64.0514 65.5 64.0514H69.6591V51.2819H65.5C60.7273 51.2819 56.8637 47.4261 56.8637 42.6631ZM16.2046 37.6959L22.6591 49.4447C23.1136 50.2839 22.5227 51.2819 21.5682 51.2819H0V64.0514H25.1591C34.0909 64.0514 39.75 54.5026 35.4546 46.7003L29 34.9515C28.5455 34.1123 29.1364 33.0917 30.0909 33.0917H41.2728V20.3449H26.5C17.5909 20.3449 11.9091 29.8937 16.2046 37.6959ZM155.046 33.1144H158.114V20.3449H155.386C147.841 20.3449 140.796 23.8151 136.205 29.5988C131.614 23.8151 124.568 20.3449 117.023 20.3449H114.296V33.1144H117.364C122.977 33.1144 127.682 36.9928 128.955 42.2095C127.682 47.4261 122.977 51.3046 117.364 51.3046H114.296V41.8012C114.296 29.5308 104.296 19.5284 91.9773 19.5284C79.6819 19.5284 69.6591 29.5308 69.6591 41.8012C69.6591 54.0717 79.6819 64.074 91.9773 64.074H98.7273V51.3046H91.9773C86.7273 51.3046 82.4546 47.0406 82.4546 41.8012C82.4546 36.5619 86.7273 32.2978 91.9773 32.2978C97.2273 32.2978 101.5 36.5619 101.5 41.8012V64.074H117.023C124.568 64.074 131.614 60.6038 136.205 54.8202C140.796 60.6038 147.841 64.074 155.386 64.074H158.114V51.3046H155.046C149.432 51.3046 144.727 47.4261 143.455 42.2095C144.705 36.9702 149.409 33.1144 155.046 33.1144Z"
    fill="white"></path>
</svg>
